<svg width="54" height="14" viewBox="0 0 54 14" xmlns="http://www.w3.org/2000/svg" fill="none"><path d="M10.335.368c.222 0 .402.076.542.227.152.14.228.321.228.542 0 .21-.076.391-.228.542-.14.152-.321.228-.542.228h-3.763v10.5c0 .222-.076.408-.228.56-.14.14-.321.21-.542.21-.21 0-.391-.07-.543-.21-.152-.152-.228-.338-.228-.56v-10.5h-3.762c-.21 0-.391-.076-.542-.227-.152-.152-.228-.332-.228-.542 0-.222.076-.402.228-.542.152-.152.333-.227.542-.227h9.065zM16.908.368c.887 0 1.721.169 2.503.507.793.338 1.482.799 2.065 1.382.595.583 1.062 1.272 1.4 2.065.338.782.508 1.616.508 2.503 0 1.038-.222 1.995-.665 2.87-.443.875-1.044 1.61-1.803 2.205l-.035.035c-.56.42-1.172.752-1.837.997-.665.233-1.377.35-2.135.35-.887 0-1.721-.169-2.502-.508-.782-.338-1.47-.799-2.065-1.383-.583-.583-1.044-1.266-1.383-2.047-.338-.782-.507-1.622-.507-2.52 0-.98.198-1.884.595-2.713.397-.84.939-1.558 1.627-2.152l.07-.07.053-.035c.56-.467 1.19-.828 1.89-1.085.7-.268 1.441-.403 2.222-.403zm0 11.375c.443 0 .863-.053 1.26-.157.408-.117.793-.274 1.155-.473l-6.143-7.472c-.373.432-.665.922-.875 1.47-.21.537-.315 1.108-.315 1.715 0 .677.128 1.312.385 1.907s.607 1.12 1.05 1.575c.455.443.98.793 1.575 1.05s1.231.385 1.907.385zm3.623-1.592c.408-.443.723-.945.945-1.505.233-.572.35-1.178.35-1.82 0-.677-.128-1.313-.385-1.908s-.613-1.114-1.068-1.557c-.443-.455-.962-.811-1.557-1.067-.595-.257-1.231-.385-1.908-.385-.467 0-.916.064-1.347.192-.432.117-.834.292-1.207.525l6.178 7.525zM30.351 7.631c-.233 0-.432-.093-.595-.28l-4.497-5.775c-.128-.163-.181-.344-.158-.542.023-.21.117-.379.28-.507.163-.128.344-.175.543-.14.21.023.379.117.508.28l3.92 5.005 3.833-4.917c.128-.163.292-.257.49-.28.21-.023.397.029.56.157.163.128.257.297.28.507.023.198-.029.379-.157.542l-4.41 5.67c-.152.187-.35.28-.595.28zm4.918 5.635l-.228-.018c-.093-.012-.204-.041-.332-.088-.128-.058-.268-.134-.42-.228-.14-.105-.28-.245-.42-.42l-3.517-4.532-3.832 4.935c-.128.163-.297.257-.508.28-.198.023-.379-.029-.543-.158-.163-.128-.257-.292-.28-.49-.023-.21.029-.397.157-.56l4.41-5.67c.14-.187.332-.28.578-.28.257 0 .461.093.613.28l4.095 5.25c.058.082.111.134.158.157l.105.053c.198 0 .362.07.49.21.14.128.216.292.227.49.023.21-.035.391-.175.542-.14.152-.315.233-.525.245h-.052zM39.734 13.266c-.222 0-.408-.076-.56-.228-.152-.152-.227-.338-.227-.56v-11.375c0-.21.076-.391.227-.542.152-.152.338-.228.56-.228.21 0 .391.076.543.228.152.152.227.333.227.542v11.375c0 .222-.076.408-.227.56-.152.152-.333.228-.543.228zM52.938 13.231c-.257 0-.455-.099-.595-.298l-7.297-9.59v9.135c0 .21-.076.391-.227.542-.14.14-.315.21-.525.21-.198 0-.373-.07-.525-.21-.152-.152-.227-.332-.227-.542v-11.357c0-.163.047-.309.14-.437.093-.128.222-.216.385-.263.152-.058.303-.064.455-.017.152.047.28.134.385.262l7.28 9.607v-9.152c0-.198.07-.373.21-.525.152-.152.332-.227.542-.227.21 0 .385.076.525.227.152.152.227.327.227.525v11.357c0 .163-.047.309-.14.438-.093.128-.216.222-.367.28l-.245.035z" fill="#1F2041"/></svg>